<svg xmlns="http://www.w3.org/2000/svg" viewBox="0 0 512 512">
  <!-- App background -->
  <rect width="512" height="512" rx="112" fill="#1a1a18"/>
  <!-- Red column (To Do) -->
  <rect x="48" y="96" width="120" height="320" rx="16" fill="#2a1c1c"/>
  <rect x="62" y="116" width="92" height="28" rx="8" fill="#7a2828"/>
  <rect x="62" y="154" width="92" height="28" rx="8" fill="#7a2828"/>
  <rect x="62" y="192" width="92" height="44" rx="8" fill="#7a2828"/>
  <!-- Yellow column (In Progress) -->
  <rect x="196" y="96" width="120" height="320" rx="16" fill="#272510"/>
  <rect x="210" y="116" width="92" height="44" rx="8" fill="#5a5010"/>
  <rect x="210" y="170" width="92" height="28" rx="8" fill="#5a5010"/>
  <!-- Green column (Done) -->
  <rect x="344" y="96" width="120" height="320" rx="16" fill="#162218"/>
  <rect x="358" y="116" width="92" height="28" rx="8" fill="#1e5a28"/>
  <rect x="358" y="154" width="92" height="28" rx="8" fill="#1e5a28"/>
  <rect x="358" y="192" width="92" height="28" rx="8" fill="#1e5a28"/>
  <rect x="358" y="230" width="92" height="44" rx="8" fill="#1e5a28"/>
</svg>
